TITLE ""
FILE "1Q_t_1069-1078.mp3" MP3
  TRACK 01 AUDIO
    TITLE "1Q_t_1069-1078_01"
    INDEX 01 00:00:00
  TRACK 02 AUDIO
    TITLE "1Q_t_1069-1078_02"
    INDEX 01 00:01:18
  TRACK 03 AUDIO
    TITLE "1Q_t_1069-1078_03"
    INDEX 01 00:01:61
  TRACK 04 AUDIO
    TITLE "1Q_t_1069-1078_04"
    INDEX 01 00:02:70
  TRACK 05 AUDIO
    TITLE "1Q_t_1069-1078_05"
    INDEX 01 00:03:05
  TRACK 06 AUDIO
    TITLE "1Q_t_1069-1078_06"
    INDEX 01 00:04:22
  TRACK 07 AUDIO
    TITLE "1Q_t_1069-1078_07"
    INDEX 01 00:04:28
  TRACK 08 AUDIO
    TITLE "1Q_t_1069-1078_08"
    INDEX 01 00:07:36
  TRACK 09 AUDIO
    TITLE "1Q_t_1069-1078_09"
    INDEX 01 00:08:04
  TRACK 10 AUDIO
    TITLE "1Q_t_1069-1078_10"
    INDEX 01 00:09:09
  TRACK 11 AUDIO
    TITLE "1Q_t_1069-1078_11"
    INDEX 01 00:09:17
  TRACK 12 AUDIO
    TITLE "1Q_t_1069-1078_12"
    INDEX 01 00:11:43
  TRACK 13 AUDIO
    TITLE "1Q_t_1069-1078_13"
    INDEX 01 00:11:49
  TRACK 14 AUDIO
    TITLE "1Q_t_1069-1078_14"
    INDEX 01 00:16:35
  TRACK 15 AUDIO
    TITLE "1Q_t_1069-1078_15"
    INDEX 01 00:17:07
  TRACK 16 AUDIO
    TITLE "1Q_t_1069-1078_16"
    INDEX 01 00:18:16
  TRACK 17 AUDIO
    TITLE "1Q_t_1069-1078_17"
    INDEX 01 00:18:22
  TRACK 18 AUDIO
    TITLE "1Q_t_1069-1078_18"
    INDEX 01 00:20:44
  TRACK 19 AUDIO
    TITLE "1Q_t_1069-1078_19"
    INDEX 01 00:20:50
  TRACK 20 AUDIO
    TITLE "1Q_t_1069-1078_20"
    INDEX 01 00:26:06
  TRACK 21 AUDIO
    TITLE "1Q_t_1069-1078_21"
    INDEX 01 00:26:53
  TRACK 22 AUDIO
    TITLE "1Q_t_1069-1078_22"
    INDEX 01 00:27:58
  TRACK 23 AUDIO
    TITLE "1Q_t_1069-1078_23"
    INDEX 01 00:27:68
  TRACK 24 AUDIO
    TITLE "1Q_t_1069-1078_24"
    INDEX 01 00:29:47
  TRACK 25 AUDIO
    TITLE "1Q_t_1069-1078_25"
    INDEX 01 00:29:53
  TRACK 26 AUDIO
    TITLE "1Q_t_1069-1078_26"
    INDEX 01 00:33:67
  TRACK 27 AUDIO
    TITLE "1Q_t_1069-1078_27"
    INDEX 01 00:34:35
  TRACK 28 AUDIO
    TITLE "1Q_t_1069-1078_28"
    INDEX 01 00:35:40
  TRACK 29 AUDIO
    TITLE "1Q_t_1069-1078_29"
    INDEX 01 00:35:50
  TRACK 30 AUDIO
    TITLE "1Q_t_1069-1078_30"
    INDEX 01 00:39:46
  TRACK 31 AUDIO
    TITLE "1Q_t_1069-1078_31"
    INDEX 01 00:39:55
  TRACK 32 AUDIO
    TITLE "1Q_t_1069-1078_32"
    INDEX 01 00:46:30
  TRACK 33 AUDIO
    TITLE "1Q_t_1069-1078_33"
    INDEX 01 00:46:73
  TRACK 34 AUDIO
    TITLE "1Q_t_1069-1078_34"
    INDEX 01 00:48:07
  TRACK 35 AUDIO
    TITLE "1Q_t_1069-1078_35"
    INDEX 01 00:48:19
  TRACK 36 AUDIO
    TITLE "1Q_t_1069-1078_36"
    INDEX 01 00:49:38
  TRACK 37 AUDIO
    TITLE "1Q_t_1069-1078_37"
    INDEX 01 00:49:44
  TRACK 38 AUDIO
    TITLE "1Q_t_1069-1078_38"
    INDEX 01 00:53:28
  TRACK 39 AUDIO
    TITLE "1Q_t_1069-1078_39"
    INDEX 01 00:53:71
  TRACK 40 AUDIO
    TITLE "1Q_t_1069-1078_40"
    INDEX 01 00:54:75
  TRACK 41 AUDIO
    TITLE "1Q_t_1069-1078_41"
    INDEX 01 00:55:09
  TRACK 42 AUDIO
    TITLE "1Q_t_1069-1078_42"
    INDEX 01 00:56:28
  TRACK 43 AUDIO
    TITLE "1Q_t_1069-1078_43"
    INDEX 01 00:56:34
  TRACK 44 AUDIO
    TITLE "1Q_t_1069-1078_44"
    INDEX 01 01:01:06
  TRACK 45 AUDIO
    TITLE "1Q_t_1069-1078_45"
    INDEX 01 01:01:53
  TRACK 46 AUDIO
    TITLE "1Q_t_1069-1078_46"
    INDEX 01 01:02:54
  TRACK 47 AUDIO
    TITLE "1Q_t_1069-1078_47"
    INDEX 01 01:02:60
  TRACK 48 AUDIO
    TITLE "1Q_t_1069-1078_48"
    INDEX 01 01:05:37
  TRACK 49 AUDIO
    TITLE "1Q_t_1069-1078_49"
    INDEX 01 01:05:43
  TRACK 50 AUDIO
    TITLE "1Q_t_1069-1078_50"
    INDEX 01 01:10:23
  TRACK 51 AUDIO
    TITLE "1Q_t_1069-1078_51"
    INDEX 01 01:10:68
  TRACK 52 AUDIO
    TITLE "1Q_t_1069-1078_52"
    INDEX 01 01:12:14
  TRACK 53 AUDIO
    TITLE "1Q_t_1069-1078_53"
    INDEX 01 01:12:22
  TRACK 54 AUDIO
    TITLE "1Q_t_1069-1078_54"
    INDEX 01 01:13:48
  TRACK 55 AUDIO
    TITLE "1Q_t_1069-1078_55"
    INDEX 01 01:13:54
  TRACK 56 AUDIO
    TITLE "1Q_t_1069-1078_56"
    INDEX 01 01:18:48
  TRACK 57 AUDIO
    TITLE "1Q_t_1069-1078_57"
    INDEX 01 01:19:18
  TRACK 58 AUDIO
    TITLE "1Q_t_1069-1078_58"
    INDEX 01 01:20:39
  TRACK 59 AUDIO
    TITLE "1Q_t_1069-1078_59"
    INDEX 01 01:20:49
  TRACK 60 AUDIO
    TITLE "1Q_t_1069-1078_60"
    INDEX 01 01:22:73
  TRACK 61 AUDIO
    TITLE "1Q_t_1069-1078_61"
    INDEX 01 01:23:04
  TRACK 62 AUDIO
    TITLE "1Q_t_1069-1078_62"
    INDEX 01 01:28:15
